<mxfile host="app.diagrams.net" modified="2024-05-22T14:40:41.024Z" agent="Mozilla/5.0 (Windows NT 10.0; Win64; x64) AppleWebKit/537.36 (KHTML, like Gecko) Chrome/121.0.0.0 Safari/537.36" etag="jGQQrgxLVMd4NPHSTP48" version="24.4.6" type="device">
  <diagram name="Página-1" id="WX7Fgun8oqsMYBenGJfl">
    <mxGraphModel dx="2261" dy="1951" grid="1" gridSize="10" guides="1" tooltips="1" connect="1" arrows="1" fold="1" page="1" pageScale="1" pageWidth="827" pageHeight="1169" math="0" shadow="0">
      <root>
        <mxCell id="0" />
        <mxCell id="1" parent="0" />
        <mxCell id="akrulGkdlOrXT_vxGllJ-6" value="" style="edgeStyle=orthogonalEdgeStyle;rounded=0;orthogonalLoop=1;jettySize=auto;html=1;" edge="1" parent="1" source="akrulGkdlOrXT_vxGllJ-1" target="akrulGkdlOrXT_vxGllJ-5">
          <mxGeometry relative="1" as="geometry" />
        </mxCell>
        <mxCell id="akrulGkdlOrXT_vxGllJ-1" value="Inicio" style="ellipse;whiteSpace=wrap;html=1;" vertex="1" parent="1">
          <mxGeometry x="360" y="-50" width="120" height="90" as="geometry" />
        </mxCell>
        <mxCell id="akrulGkdlOrXT_vxGllJ-35" style="edgeStyle=orthogonalEdgeStyle;rounded=0;orthogonalLoop=1;jettySize=auto;html=1;" edge="1" parent="1" source="akrulGkdlOrXT_vxGllJ-5" target="akrulGkdlOrXT_vxGllJ-11">
          <mxGeometry relative="1" as="geometry">
            <Array as="points">
              <mxPoint x="420" y="200" />
              <mxPoint x="100" y="200" />
            </Array>
          </mxGeometry>
        </mxCell>
        <mxCell id="akrulGkdlOrXT_vxGllJ-38" value="" style="edgeStyle=orthogonalEdgeStyle;rounded=0;orthogonalLoop=1;jettySize=auto;html=1;" edge="1" parent="1" source="akrulGkdlOrXT_vxGllJ-5" target="akrulGkdlOrXT_vxGllJ-12">
          <mxGeometry relative="1" as="geometry" />
        </mxCell>
        <mxCell id="akrulGkdlOrXT_vxGllJ-5" value="Listar fornecedor" style="whiteSpace=wrap;html=1;" vertex="1" parent="1">
          <mxGeometry x="360" y="130" width="120" height="60" as="geometry" />
        </mxCell>
        <mxCell id="akrulGkdlOrXT_vxGllJ-36" value="" style="edgeStyle=orthogonalEdgeStyle;rounded=0;orthogonalLoop=1;jettySize=auto;html=1;" edge="1" parent="1" source="akrulGkdlOrXT_vxGllJ-11" target="akrulGkdlOrXT_vxGllJ-17">
          <mxGeometry relative="1" as="geometry" />
        </mxCell>
        <mxCell id="akrulGkdlOrXT_vxGllJ-37" style="edgeStyle=orthogonalEdgeStyle;rounded=0;orthogonalLoop=1;jettySize=auto;html=1;entryX=0;entryY=0;entryDx=0;entryDy=0;" edge="1" parent="1" source="akrulGkdlOrXT_vxGllJ-11" target="akrulGkdlOrXT_vxGllJ-19">
          <mxGeometry relative="1" as="geometry">
            <Array as="points">
              <mxPoint x="260" y="280" />
            </Array>
          </mxGeometry>
        </mxCell>
        <mxCell id="akrulGkdlOrXT_vxGllJ-11" value="Buscar fornecedor" style="rounded=0;whiteSpace=wrap;html=1;" vertex="1" parent="1">
          <mxGeometry x="60" y="240" width="80" height="40" as="geometry" />
        </mxCell>
        <mxCell id="akrulGkdlOrXT_vxGllJ-30" value="" style="edgeStyle=orthogonalEdgeStyle;rounded=0;orthogonalLoop=1;jettySize=auto;html=1;" edge="1" parent="1" source="akrulGkdlOrXT_vxGllJ-12" target="akrulGkdlOrXT_vxGllJ-29">
          <mxGeometry relative="1" as="geometry" />
        </mxCell>
        <mxCell id="akrulGkdlOrXT_vxGllJ-12" value="Cadastrar&amp;nbsp;&lt;div&gt;fornecedor&lt;/div&gt;" style="rounded=0;whiteSpace=wrap;html=1;" vertex="1" parent="1">
          <mxGeometry x="380" y="260" width="80" height="40" as="geometry" />
        </mxCell>
        <mxCell id="akrulGkdlOrXT_vxGllJ-17" value="apagar fornecedor" style="rounded=0;whiteSpace=wrap;html=1;" vertex="1" parent="1">
          <mxGeometry x="55" y="390" width="90" height="40" as="geometry" />
        </mxCell>
        <mxCell id="akrulGkdlOrXT_vxGllJ-19" value="Atualizar fornecedor" style="rounded=0;whiteSpace=wrap;html=1;" vertex="1" parent="1">
          <mxGeometry x="260" y="450" width="90" height="40" as="geometry" />
        </mxCell>
        <mxCell id="akrulGkdlOrXT_vxGllJ-24" value="sim" style="endArrow=classic;html=1;rounded=0;entryX=1;entryY=0.5;entryDx=0;entryDy=0;" edge="1" parent="1" target="akrulGkdlOrXT_vxGllJ-5">
          <mxGeometry width="50" height="50" relative="1" as="geometry">
            <mxPoint x="630" y="380" as="sourcePoint" />
            <mxPoint x="680" y="330" as="targetPoint" />
            <Array as="points">
              <mxPoint x="720" y="380" />
              <mxPoint x="720" y="160" />
            </Array>
          </mxGeometry>
        </mxCell>
        <mxCell id="akrulGkdlOrXT_vxGllJ-26" value="" style="endArrow=classic;html=1;rounded=0;entryX=0;entryY=0.5;entryDx=0;entryDy=0;" edge="1" parent="1" target="akrulGkdlOrXT_vxGllJ-28">
          <mxGeometry width="50" height="50" relative="1" as="geometry">
            <mxPoint x="360" y="160" as="sourcePoint" />
            <mxPoint x="200" y="480" as="targetPoint" />
            <Array as="points">
              <mxPoint x="-80" y="160" />
              <mxPoint x="-80" y="720" />
            </Array>
          </mxGeometry>
        </mxCell>
        <mxCell id="akrulGkdlOrXT_vxGllJ-28" value="fim" style="ellipse;whiteSpace=wrap;html=1;" vertex="1" parent="1">
          <mxGeometry x="200" y="680" width="120" height="80" as="geometry" />
        </mxCell>
        <mxCell id="akrulGkdlOrXT_vxGllJ-31" value="sim" style="edgeStyle=orthogonalEdgeStyle;rounded=0;orthogonalLoop=1;jettySize=auto;html=1;entryX=1;entryY=0.75;entryDx=0;entryDy=0;" edge="1" parent="1" source="akrulGkdlOrXT_vxGllJ-29" target="akrulGkdlOrXT_vxGllJ-5">
          <mxGeometry relative="1" as="geometry">
            <Array as="points">
              <mxPoint x="610" y="175" />
            </Array>
          </mxGeometry>
        </mxCell>
        <mxCell id="akrulGkdlOrXT_vxGllJ-32" value="não" style="edgeStyle=orthogonalEdgeStyle;rounded=0;orthogonalLoop=1;jettySize=auto;html=1;entryX=1;entryY=1;entryDx=0;entryDy=0;" edge="1" parent="1" source="akrulGkdlOrXT_vxGllJ-29" target="akrulGkdlOrXT_vxGllJ-12">
          <mxGeometry relative="1" as="geometry">
            <mxPoint x="470" y="320" as="targetPoint" />
            <Array as="points">
              <mxPoint x="500" y="320" />
              <mxPoint x="500" y="300" />
            </Array>
          </mxGeometry>
        </mxCell>
        <mxCell id="akrulGkdlOrXT_vxGllJ-29" value="dados&amp;nbsp;&lt;div&gt;validos&lt;/div&gt;" style="rhombus;whiteSpace=wrap;html=1;rounded=0;" vertex="1" parent="1">
          <mxGeometry x="570" y="240" width="80" height="80" as="geometry" />
        </mxCell>
        <mxCell id="akrulGkdlOrXT_vxGllJ-33" style="edgeStyle=orthogonalEdgeStyle;rounded=0;orthogonalLoop=1;jettySize=auto;html=1;entryX=0;entryY=0;entryDx=0;entryDy=0;" edge="1" parent="1" source="akrulGkdlOrXT_vxGllJ-17" target="akrulGkdlOrXT_vxGllJ-28">
          <mxGeometry relative="1" as="geometry">
            <mxPoint x="200" y="670" as="targetPoint" />
            <Array as="points">
              <mxPoint x="120" y="650" />
              <mxPoint x="200" y="650" />
              <mxPoint x="200" y="692" />
            </Array>
          </mxGeometry>
        </mxCell>
        <mxCell id="akrulGkdlOrXT_vxGllJ-39" style="edgeStyle=orthogonalEdgeStyle;rounded=0;orthogonalLoop=1;jettySize=auto;html=1;exitX=0.5;exitY=1;exitDx=0;exitDy=0;" edge="1" parent="1" source="akrulGkdlOrXT_vxGllJ-19" target="akrulGkdlOrXT_vxGllJ-19">
          <mxGeometry relative="1" as="geometry" />
        </mxCell>
      </root>
    </mxGraphModel>
  </diagram>
</mxfile>
